HIERARCHY
ROOT Hips
{
	OFFSET	0.00	0.00	0.00
	CHANNELS 6 Xposition Yposition Zposition Zrotation Xrotation Yrotation
	JOINT LeftUpLeg
	{
		OFFSET	 0.126116	-0.014019	-0.065224
		CHANNELS 3 Zrotation Xrotation Yrotation
		JOINT LeftLeg
		{
			OFFSET	 0.000000	 0.000000	 0.569914
			CHANNELS 3 Zrotation Xrotation Yrotation
			JOINT LeftFoot
			{
				OFFSET	 0.000000	 0.000000	 0.544423
				CHANNELS 3 Zrotation Xrotation Yrotation
				JOINT LeftToeBase
				{
					OFFSET	 0.000000	 0.000000	 0.207117
					CHANNELS 3 Zrotation Xrotation Yrotation
					End Site
					{
						OFFSET	 0.000000	 0.000000	 0.207117
					}
				}
			}
		}
	}
	JOINT RightUpLeg
	{
		OFFSET	-0.124023	-0.008373	-0.065224
		CHANNELS 3 Zrotation Xrotation Yrotation
		JOINT RightLeg
		{
			OFFSET	 0.000000	 0.000000	 0.570047
			CHANNELS 3 Zrotation Xrotation Yrotation
			JOINT RightFoot
			{
				OFFSET	 0.000000	 0.000000	 0.544354
				CHANNELS 3 Zrotation Xrotation Yrotation
				JOINT RightToeBase
				{
					OFFSET	 0.000000	 0.000000	 0.207540
					CHANNELS 3 Zrotation Xrotation Yrotation
					End Site
					{
						OFFSET	 0.000000	 0.000000	 0.207540
					}
				}
			}
		}
	}
	JOINT Spine
	{
		OFFSET	 0.000184	-0.007763	 0.117403
		CHANNELS 3 Zrotation Xrotation Yrotation
		JOINT Spine1
		{
			OFFSET	 0.000000	 0.000000	 0.137269
			CHANNELS 3 Zrotation Xrotation Yrotation
			JOINT Spine2
			{
				OFFSET	 0.000000	 0.000000	 0.156879
				CHANNELS 3 Zrotation Xrotation Yrotation
				JOINT LeftShoulder
				{
					OFFSET	 0.080501	-0.002496	 0.160144
					CHANNELS 3 Zrotation Xrotation Yrotation
					JOINT LeftArm
					{
						OFFSET	 0.000000	 0.000000	 0.164363
						CHANNELS 3 Zrotation Xrotation Yrotation
						JOINT LeftForeArm
						{
							OFFSET	 0.000000	 0.000000	 0.364576
							CHANNELS 3 Zrotation Xrotation Yrotation
							JOINT LeftHand
							{
								OFFSET	 0.000000	 0.000000	 0.360812
								CHANNELS 3 Zrotation Xrotation Yrotation
								JOINT LeftHandIndex1
								{
									OFFSET	 0.000000	 0.000000	 0.086006
									CHANNELS 3 Zrotation Xrotation Yrotation
									JOINT LeftHandIndex2
									{
										OFFSET	 0.000000	 0.000000	 0.047236
										CHANNELS 3 Zrotation Xrotation Yrotation
										JOINT LeftHandIndex3
										{
											OFFSET	-0.004284	-0.000551	 0.038166
											CHANNELS 3 Zrotation Xrotation Yrotation
											End Site
											{
												OFFSET	-0.004284	-0.000551	 0.038166
											}
										}
									}
								}
							}
						}
					}
				}
				JOINT Neck
				{
					OFFSET	 0.000000	 0.000000	 0.176489
					CHANNELS 3 Zrotation Xrotation Yrotation
					JOINT Head
					{
						OFFSET	 0.000000	-0.001747	 0.077940
						CHANNELS 3 Zrotation Xrotation Yrotation
						End Site
						{
							OFFSET	 0.000000	-0.001747	 0.077940
						}
					}
				}
				JOINT RightShoulder
				{
					OFFSET	-0.080363	 0.000306	 0.159706
					CHANNELS 3 Zrotation Xrotation Yrotation
					JOINT RightArm
					{
						OFFSET	 0.000000	 0.000000	 0.164196
						CHANNELS 3 Zrotation Xrotation Yrotation
						JOINT RightForeArm
						{
							OFFSET	 0.000000	 0.000000	 0.365611
							CHANNELS 3 Zrotation Xrotation Yrotation
							JOINT RightHand
							{
								OFFSET	 0.000000	 0.000000	 0.360648
								CHANNELS 3 Zrotation Xrotation Yrotation
								JOINT RightHandIndex1
								{
									OFFSET	 0.000000	 0.000000	 0.069977
									CHANNELS 3 Zrotation Xrotation Yrotation
									JOINT RightHandIndex2
									{
										OFFSET	 0.000000	 0.000000	 0.052305
										CHANNELS 3 Zrotation Xrotation Yrotation
										JOINT RightHandIndex3
										{
											OFFSET	 0.009002	-0.000782	 0.042196
											CHANNELS 3 Zrotation Xrotation Yrotation
											End Site
											{
												OFFSET	 0.009002	-0.000782	 0.042196
											}
										}
									}
								}
							}
						}
					}
				}
			}
		}
	}
}
MOTION
Frames:    13
Frame Time: 0.03333334
-0.000587	 0.007075	 1.267950	 0.003233	 0.004044	-0.138217	 18.770860	-3.563534	 176.063900	 1.455533	-13.299710	-0.779178	-9.225837	 70.609880	 3.358716	-2.385833	 28.452760	 0.000004	-18.895130	-3.539852	-175.729300	-1.438440	-13.590540	 0.782218	 9.470496	 71.152660	-3.770701	 2.384658	 28.388730	 0.000004	 30.386800	 2.739602	-0.058119	 1.624149	 3.644106	 0.648898	-4.883878	-4.539627	-1.070191	-91.776220	 78.527430	-180.000000	 40.953080	 29.259500	-55.255010	-25.388810	 2.705343	-8.088101	-43.515430	 1.291893	-4.053620	-2.635965	 4.993658	 6.788941	-5.165319	 0.784187	 3.516649	-5.225038	 0.466231	 0.424329	-0.000002	-3.783157	-0.089647	-4.740528	 4.833849	 0.200189	 89.782140	 78.203890	 180.000000	-0.576149	 12.094310	 111.724100	-17.081970	 2.400476	 8.222181	 18.237000	-1.847340	-5.835114	 6.112037	 4.509576	-0.364401	 4.968462	 1.518543	-9.347576	 5.168945	 0.703820	 2.021906
-0.000590	 0.005843	 1.268122	 0.003234	 0.004042	-0.138220	 18.777550	-3.467327	 176.053200	 1.457896	-13.129060	-0.768821	-9.182436	 70.507770	 3.314055	-2.385833	 28.452760	 0.000004	-18.905530	-3.367824	-175.700800	-1.441685	-13.357620	 0.768306	 9.467930	 71.062340	-3.769703	 2.384658	 28.388730	 0.000004	 31.816860	 2.739600	-0.058118	 1.624148	 3.644118	 0.648901	-4.883877	-4.539635	-1.070194	-91.776210	 78.527450	-180.000000	 40.971000	 29.277150	-55.291430	-23.826750	 2.278797	-7.442738	-42.907110	 1.401440	-4.028297	-2.635965	 4.993658	 6.788941	-5.165319	 0.784187	 3.516649	-5.225038	 0.466231	 0.424329	-0.000002	-3.783157	-0.089647	-4.740528	 4.833849	 0.200189	 89.782100	 78.203900	 180.000000	-0.615075	 12.145110	 111.731500	-18.692070	 1.968454	 7.566410	 17.658620	-1.674292	-5.903085	 6.112037	 4.509576	-0.364401	 4.968462	 1.518543	-9.347576	 5.168945	 0.703820	 2.021906
-0.000584	 0.004472	 1.268271	 0.003230	 0.004040	-0.138217	 18.783780	-3.377353	 176.042600	 1.460018	-12.974360	-0.759440	-9.146114	 70.411940	 3.276977	-2.385833	 28.452760	 0.000004	-18.916020	-3.191908	-175.670200	-1.444788	-13.129900	 0.754739	 9.475572	 70.977550	-3.779643	 2.384658	 28.388730	 0.000004	 33.141440	 2.739610	-0.058121	 1.624151	 3.644104	 0.648901	-4.883878	-4.539630	-1.070192	-91.776200	 78.527470	-180.000000	 40.998160	 29.308970	-55.352730	-22.047570	 1.838161	-6.687041	-42.210440	 1.401418	-4.033182	-2.635965	 4.993658	 6.788941	-5.165319	 0.784187	 3.516649	-5.225038	 0.466231	 0.424329	-0.000002	-3.783157	-0.089647	-4.740528	 4.833849	 0.200189	 89.782110	 78.203900	 180.000000	-0.667569	 12.206050	 111.724300	-20.529870	 1.524896	 6.802956	 16.980160	-1.609701	-5.947660	 6.112037	 4.509576	-0.364401	 4.968462	 1.518543	-9.347576	 5.168945	 0.703820	 2.021906
-0.000565	 0.003031	 1.268345	 0.003237	 0.004037	-0.138254	 18.787850	-3.318297	 176.034000	 1.461227	-12.884940	-0.754025	-9.131677	 70.348140	 3.263226	-2.385833	 28.452760	 0.000004	-18.924540	-3.041316	-175.640600	-1.447070	-12.960220	 0.744640	 9.506494	 70.923100	-3.814283	 2.384658	 28.388730	 0.000004	 34.227960	 2.739614	-0.058083	 1.624146	 3.644112	 0.648921	-4.883883	-4.539633	-1.070202	-91.776250	 78.527490	-179.999900	 41.040580	 29.350300	-55.440280	-20.141170	 1.425365	-5.863905	-41.460220	 1.266246	-4.069959	-2.635965	 4.993658	 6.788941	-5.165319	 0.784187	 3.516649	-5.225038	 0.466231	 0.424329	-0.000002	-3.783157	-0.089647	-4.740528	 4.833849	 0.200189	 89.782110	 78.203870	 180.000000	-0.620601	 12.307980	 111.720600	-22.497880	 1.106861	 5.967560	 16.224860	-1.669026	-5.964612	 6.112037	 4.509576	-0.364401	 4.968462	 1.518543	-9.347576	 5.168945	 0.703820	 2.021906
-0.000544	 0.001707	 1.268396	 0.003237	 0.004037	-0.138254	 18.791090	-3.271593	 176.026600	 1.462120	-12.818290	-0.749994	-9.123445	 70.297380	 3.255953	-2.385833	 28.452760	 0.000004	-18.931880	-2.909462	-175.613900	-1.448960	-12.817470	 0.736155	 9.539173	 70.879620	-3.850542	 2.384658	 28.388730	 0.000004	 34.956960	 2.739613	-0.058083	 1.624145	 3.644112	 0.648921	-4.883883	-4.539633	-1.070202	-91.776260	 78.527420	-179.999900	 41.087070	 29.400000	-55.540530	-18.349030	 1.089320	-5.073276	-40.750750	 1.022012	-4.126977	-2.635965	 4.993658	 6.788941	-5.165319	 0.784187	 3.516649	-5.225038	 0.466231	 0.424329	-0.000002	-3.783157	-0.089647	-4.740528	 4.833849	 0.200189	 89.782100	 78.203920	 180.000000	-0.664779	 12.392860	 111.695200	-24.351340	 0.767571	 5.169691	 15.497400	-1.822649	-5.959525	 6.112037	 4.509576	-0.364401	 4.968462	 1.518543	-9.347576	 5.168945	 0.703820	 2.021906
-0.000524	 0.000247	 1.268503	 0.003237	 0.004037	-0.138263	 18.796280	-3.197209	 176.016800	 1.463738	-12.697650	-0.742694	-9.099430	 70.217610	 3.232028	-2.385833	 28.452760	 0.000004	-18.942030	-2.739033	-175.582500	-1.451689	-12.608880	 0.723773	 9.558060	 70.806080	-3.872365	 2.384658	 28.388730	 0.000004	 35.461040	 2.739606	-0.058075	 1.624144	 3.644120	 0.648921	-4.883883	-4.539637	-1.070204	-91.776220	 78.527490	-180.000000	 41.146250	 29.462060	-55.666640	-16.317050	 0.772348	-4.164724	-39.941910	 0.617925	-4.210010	-2.635965	 4.993658	 6.788941	-5.165319	 0.784187	 3.516649	-5.225038	 0.466231	 0.424329	-0.000002	-3.783157	-0.089647	-4.740528	 4.833849	 0.200189	 89.782050	 78.203920	-180.000000	-1.019902	 12.395350	 111.612500	-26.453030	 0.447251	 4.246997	 14.646870	-2.113306	-5.935753	 6.112037	 4.509576	-0.364401	 4.968462	 1.518543	-9.347576	 5.168945	 0.703820	 2.021906
-0.000518	-0.000996	 1.268692	 0.003234	 0.004042	-0.138220	 18.803930	-3.088750	 176.005200	 1.466321	-12.501840	-0.730866	-9.049867	 70.102690	 3.180672	-2.385833	 28.452760	 0.000004	-18.954480	-2.545824	-175.552200	-1.455216	-12.333010	 0.707432	 9.541760	 70.694380	-3.856560	 2.384658	 28.388730	 0.000004	 35.635550	 2.739601	-0.058118	 1.624148	 3.644126	 0.648919	-4.883883	-4.539639	-1.070202	-91.776180	 78.527430	-180.000000	 41.202320	 29.518930	-55.784900	-14.533150	 0.548735	-3.356589	-39.227190	 0.159345	-4.292950	-2.635965	 4.993658	 6.788941	-5.165319	 0.784187	 3.516649	-5.225038	 0.466231	 0.424329	-0.000002	-3.783157	-0.089647	-4.740528	 4.833849	 0.200189	 89.782110	 78.203870	 180.000000	-1.751145	 12.284340	 111.467700	-28.296600	 0.221039	 3.429487	 13.785230	-2.429650	-5.908096	 6.112037	 4.509576	-0.364401	 4.968462	 1.518543	-9.347576	 5.168945	 0.703820	 2.021906
-0.000522	-0.002392	 1.269028	 0.003237	 0.004037	-0.138254	 18.816740	-2.907569	 175.987700	 1.470723	-12.159660	-0.710237	-8.957153	 69.911880	 3.083430	-2.385833	 28.452760	 0.000004	-18.973670	-2.264809	-175.513200	-1.460679	-11.892280	 0.681395	 9.481303	 70.503520	-3.794005	 2.384658	 28.388730	 0.000004	 35.538970	 2.739614	-0.058083	 1.624145	 3.644110	 0.648916	-4.883881	-4.539631	-1.070200	-91.776200	 78.527470	 180.000000	 41.269330	 29.592140	-55.928550	-12.472100	 0.356237	-2.417246	-38.395720	-0.483559	-4.393643	-2.635965	 4.993658	 6.788941	-5.165319	 0.784187	 3.516649	-5.225038	 0.466231	 0.424329	-0.000002	-3.783157	-0.089647	-4.740526	 4.833850	 0.200189	 89.782100	 78.203890	 180.000000	-3.087998	 12.058170	 111.253700	-30.424410	 0.024090	 2.477797	 12.571300	-2.822981	-5.875238	 6.112037	 4.509576	-0.364401	 4.968462	 1.518543	-9.347576	 5.168945	 0.703820	 2.021906
-0.000532	-0.003589	 1.269393	 0.003237	 0.004037	-0.138254	 18.830730	-2.711260	 175.969600	 1.475436	-11.781800	-0.687524	-8.853585	 69.705610	 2.974293	-2.385833	 28.452760	 0.000004	-18.993980	-1.977605	-175.476100	-1.466308	-11.419590	 0.653566	 9.400339	 70.292430	-3.709273	 2.384658	 28.388730	 0.000004	 35.201050	 2.739613	-0.058083	 1.624145	 3.644112	 0.648916	-4.883880	-4.539632	-1.070200	-91.776210	 78.527420	-180.000000	 41.332810	 29.664200	-56.068040	-10.668300	 0.242572	-1.585971	-37.661980	-1.140182	-4.480813	-2.635965	 4.993658	 6.788941	-5.165319	 0.784187	 3.516649	-5.225038	 0.466231	 0.424329	-0.000002	-3.783157	-0.089647	-4.740528	 4.833849	 0.200189	 89.782100	 78.203920	 180.000000	-4.592616	 11.753020	 111.004800	-32.287080	-0.091224	 1.637764	 11.487330	-3.257158	-5.844419	 6.112037	 4.509576	-0.364401	 4.968462	 1.518543	-9.347576	 5.168945	 0.703820	 2.021906
-0.000546	-0.004893	 1.269826	 0.003235	 0.004041	-0.138263	 18.847820	-2.472427	 175.948000	 1.480994	-11.318690	-0.659765	-8.728148	 69.454880	 2.841715	-2.385833	 28.452760	 0.000004	-19.006570	-1.785620	-175.444400	-1.469333	-11.155500	 0.638057	 9.395267	 70.188650	-3.705223	 2.384658	 28.388730	 0.000004	 34.562570	 2.739602	-0.058075	 1.624146	 3.644128	 0.648923	-4.883883	-4.539642	-1.070204	-91.776180	 78.527470	 180.000000	 41.409810	 29.745590	-56.231920	-8.680097	 0.179172	-0.668687	-36.846030	-1.959442	-4.570110	-2.635965	 4.993658	 6.788941	-5.165319	 0.784187	 3.516649	-5.225038	 0.466231	 0.424329	-0.000002	-3.783157	-0.089647	-4.740524	 4.833851	 0.200189	 89.782120	 78.203870	 180.000000	-6.569509	 11.611010	 110.649500	-34.183870	-0.154876	 0.706769	 10.093480	-3.816869	-5.794862	 6.112037	 4.509576	-0.364401	 4.968462	 1.518543	-9.347576	 5.168945	 0.703820	 2.021906
-0.000558	-0.006306	 1.270280	 0.003235	 0.004041	-0.138263	 18.866620	-2.211095	 175.924100	 1.486803	-10.811600	-0.629476	-8.594422	 69.180500	 2.700122	-2.385833	 28.452760	 0.000004	-19.010520	-1.698621	-175.418800	-1.469736	-11.119770	 0.635960	 9.470770	 70.201970	-3.786942	 2.384658	 28.388730	 0.000004	 33.558470	 2.739598	-0.058076	 1.624146	 3.644136	 0.648924	-4.883884	-4.539647	-1.070206	-91.776230	 78.527450	-180.000000	 41.494000	 29.843620	-56.416590	-6.520406	 0.139109	-1.204660	-35.948210	-2.957761	-4.652623	-2.635965	 4.993658	 6.788941	-5.165319	 0.784187	 3.516649	-5.225038	 0.466231	 0.424329	-0.000002	-3.783157	-0.089647	-4.740528	 4.833849	 0.200189	 89.782070	 78.203890	-180.000000	-8.841082	 11.493680	 110.104600	-36.218350	-0.195189	 1.228407	 8.517280	-4.526163	-5.748814	 6.112037	 4.509576	-0.364401	 4.968462	 1.518543	-9.347576	 5.168945	 0.703820	 2.021906
-0.000564	-0.007606	 1.270656	 0.003236	 0.004039	-0.138265	 18.883110	-1.983245	 175.903100	 1.491628	-10.370990	-0.603242	-8.481995	 68.941190	 2.580981	-2.385833	 28.452760	 0.000004	-19.014190	-1.618298	-175.395300	-1.470126	-11.085500	 0.633952	 9.539437	 70.213340	-3.861221	 2.384658	 28.388730	 0.000004	 32.360480	 2.739598	-0.058074	 1.624147	 3.644138	 0.648903	-4.883878	-4.539647	-1.070196	-91.776180	 78.527450	 180.000000	 41.577700	 29.933070	-56.595720	-4.545601	 0.038756	-2.124631	-35.114430	-3.964226	-4.709019	-2.635965	 4.993658	 6.788941	-5.165319	 0.784187	 3.516649	-5.225038	 0.466231	 0.424329	-0.000002	-3.783157	-0.089647	-4.740524	 4.833851	 0.200189	 89.782100	 78.203900	 180.000000	-11.003310	 11.594630	 109.443700	-37.913710	-0.294044	 2.141359	 7.184126	-5.360786	-5.706939	 6.112037	 4.509576	-0.364401	 4.968462	 1.518543	-9.347576	 5.168945	 0.703820	 2.021906
-0.000566	-0.008848	 1.271021	 0.003236	 0.004038	-0.138215	 18.890220	-1.885127	 175.891800	 1.493477	-10.197050	-0.592902	-8.445699	 68.836950	 2.543255	-2.385833	 28.452760	 0.000004	-19.017820	-1.540999	-175.373000	-1.470517	-11.051240	 0.631946	 9.604332	 70.223350	-3.931468	 2.384658	 28.388730	 0.000004	 30.977160	 2.739611	-0.058122	 1.624148	 3.644113	 0.648917	-4.883883	-4.539633	-1.070200	-91.776200	 78.527490	-180.000000	 41.659350	 30.028210	-56.774330	-2.671485	-0.114505	-2.995764	-34.309720	-4.997969	-4.740453	-2.635965	 4.993658	 6.788941	-5.165319	 0.784187	 3.516649	-5.225038	 0.466231	 0.424329	-0.000002	-3.783157	-0.089647	-4.740524	 4.833852	 0.200189	 89.782010	 78.203900	-179.999900	-13.277770	 11.867380	 108.642500	-39.358250	-0.444751	 3.002746	 6.027500	-6.323610	-5.678401	 6.112037	 4.509576	-0.364401	 4.968462	 1.518543	-9.347576	 5.168945	 0.703820	 2.021906
